<svg width="69" height="63" viewBox="0 0 69 63" fill="none" xmlns="http://www.w3.org/2000/svg">
<path d="M35.4346 14.2281C35.2979 14.7057 35.5572 15.215 36.0266 15.3609L36.1221 15.3906L36.1263 15.3856C36.5676 15.4676 36.9988 15.1905 37.1254 14.7452C38.2986 10.6371 41.9919 7.77348 46.1001 7.77348C46.5927 7.77348 46.9818 7.35889 46.9818 6.8609C46.9818 6.36289 46.5927 5.94831 46.1001 5.94831C41.0418 5.94831 36.7968 9.45765 35.4346 14.2281ZM35.4346 14.2281L35.5788 14.2694M35.4346 14.2281C35.4346 14.2281 35.4346 14.2282 35.4346 14.2282L35.5788 14.2694M35.5788 14.2694C35.4633 14.673 35.6839 15.0973 36.0711 15.2177L35.5788 14.2694Z" fill="#483EA8" stroke="#F9FFF9" stroke-width="0.3"/>
<path d="M56.3438 44.2274H51.9534C51.5494 44.2274 51.2217 43.8859 51.2217 43.4648C51.2217 43.0438 51.5494 42.7022 51.9534 42.7022H56.3438C62.3956 42.7022 67.3197 37.5706 67.3197 31.2636C67.3197 24.9566 62.3956 19.825 56.3438 19.825H56.2382C56.026 19.825 55.8242 19.7291 55.6852 19.5619C55.5462 19.3946 55.4834 19.1729 55.5138 18.954C55.5791 18.479 55.612 18.0018 55.612 17.5372C55.612 12.0712 51.3444 7.62369 46.0995 7.62369C44.059 7.62369 42.1131 8.28822 40.4719 9.54591C40.1112 9.82207 39.599 9.69952 39.3905 9.28608C34.7425 0.0622159 22.6023 -1.17646 16.3082 6.8475C13.6568 10.2279 12.615 14.6252 13.4498 18.911C13.5418 19.3843 13.1942 19.8255 12.7327 19.8255H12.4395C6.3876 19.8255 1.46353 24.9572 1.46353 31.2642C1.46353 37.5712 6.3876 42.7028 12.4395 42.7028H16.8298C17.2338 42.7028 17.5615 43.0443 17.5615 43.4654C17.5615 43.8864 17.2338 44.228 16.8298 44.228H12.4395C5.5805 44.228 0 38.4122 0 31.2641C0 24.3165 5.27155 18.6277 11.8651 18.3139C11.2457 13.8675 12.4301 9.38246 15.1751 5.88231C21.9138 -2.70918 34.828 -1.74619 40.2871 7.83395C42.0287 6.69607 44.0215 6.09914 46.0992 6.09914C52.4538 6.09914 57.4892 11.7357 57.0486 18.321C63.5813 18.7029 68.7829 24.3617 68.7829 31.2636C68.7829 38.4122 63.2024 44.2274 56.3434 44.2274L56.3438 44.2274Z" fill="#483EA8"/>
<path d="M15.85 43.0342C15.85 53.6235 24.1179 62.2488 34.2935 62.2488C44.4692 62.2488 52.737 53.6233 52.737 43.0342C52.737 32.4449 44.4692 23.8196 34.2935 23.8196C24.1178 23.8196 15.85 32.4451 15.85 43.0342ZM17.6138 43.0342C17.6138 33.4402 25.1022 25.6451 34.2935 25.6451C43.4846 25.6451 50.9732 33.4401 50.9732 43.0342C50.9732 52.6282 43.4846 60.4233 34.2935 60.4233C25.1024 60.4233 17.6138 52.6283 17.6138 43.0342Z" fill="#483EA8" stroke="#F9FFF9" stroke-width="0.3"/>
<path d="M33.9417 50.7088C33.9417 51.094 34.243 51.4171 34.6274 51.4171C35.0117 51.4171 35.3131 51.0945 35.3131 50.7088V36.1931C35.3131 35.8079 35.0118 35.4848 34.6274 35.4848C34.243 35.4848 33.9417 35.8079 33.9417 36.1931V50.7088Z" fill="#483EA8" stroke="#483EA8" stroke-width="0.3"/>
<path d="M34.6269 37.1994L38.4255 41.1581C38.5587 41.2969 38.7354 41.3677 38.9125 41.3677L34.6269 37.1994ZM34.6269 37.1994L30.8284 41.158L30.8283 41.1581L34.6269 37.1994ZM35.1139 35.6945C34.8456 35.4149 34.4077 35.4148 34.1397 35.6946L38.9125 41.3677C39.0894 41.3677 39.2663 41.2975 39.3997 41.1579C39.6646 40.8817 39.6645 40.4369 39.3996 40.1608L35.1139 35.6945Z" fill="#483EA8" stroke="#483EA8" stroke-width="0.3"/>
</svg>
